<svg id="visual" viewBox="0 0 900 600" width="900" height="600" xmlns="http://www.w3.org/2000/svg" xmlns:xlink="http://www.w3.org/1999/xlink" version="1.1"><path d="M0 422L25 423.5C50 425 100 428 150 433.8C200 439.7 250 448.3 300 451C350 453.7 400 450.3 450 443.8C500 437.3 550 427.7 600 429.7C650 431.7 700 445.3 750 452.5C800 459.7 850 460.3 875 460.7L900 461L900 601L875 601C850 601 800 601 750 601C700 601 650 601 600 601C550 601 500 601 450 601C400 601 350 601 300 601C250 601 200 601 150 601C100 601 50 601 25 601L0 601Z" fill="#18181b"></path><path d="M0 464L25 466.2C50 468.3 100 472.7 150 473C200 473.3 250 469.7 300 471.2C350 472.7 400 479.3 450 480.5C500 481.7 550 477.3 600 472.7C650 468 700 463 750 461.5C800 460 850 462 875 463L900 464L900 601L875 601C850 601 800 601 750 601C700 601 650 601 600 601C550 601 500 601 450 601C400 601 350 601 300 601C250 601 200 601 150 601C100 601 50 601 25 601L0 601Z" fill="#1d1d20"></path><path d="M0 535L25 531.5C50 528 100 521 150 521.7C200 522.3 250 530.7 300 531.3C350 532 400 525 450 519.8C500 514.7 550 511.3 600 513.8C650 516.3 700 524.7 750 524.3C800 524 850 515 875 510.5L900 506L900 601L875 601C850 601 800 601 750 601C700 601 650 601 600 601C550 601 500 601 450 601C400 601 350 601 300 601C250 601 200 601 150 601C100 601 50 601 25 601L0 601Z" fill="#222225"></path><path d="M0 564L25 563.5C50 563 100 562 150 558.7C200 555.3 250 549.7 300 548.7C350 547.7 400 551.3 450 554C500 556.7 550 558.3 600 560.8C650 563.3 700 566.7 750 566.8C800 567 850 564 875 562.5L900 561L900 601L875 601C850 601 800 601 750 601C700 601 650 601 600 601C550 601 500 601 450 601C400 601 350 601 300 601C250 601 200 601 150 601C100 601 50 601 25 601L0 601Z" fill="#27272a"></path></svg>